<mxfile host="app.diagrams.net" modified="2024-06-20T09:49:15.317Z" agent="Mozilla/5.0 (Windows NT 10.0; Win64; x64) AppleWebKit/537.36 (KHTML, like Gecko) Chrome/126.0.0.0 Safari/537.36 Edg/126.0.0.0" etag="qSp7ka5uDY1J9n8haNYI" version="24.5.5" type="github">
  <diagram name="Page-1" id="dtKya0XO8up-cld16rjS">
    <mxGraphModel dx="2972" dy="1208" grid="1" gridSize="10" guides="1" tooltips="1" connect="1" arrows="1" fold="1" page="1" pageScale="1" pageWidth="850" pageHeight="1100" math="1" shadow="0">
      <root>
        <mxCell id="0" />
        <mxCell id="1" parent="0" />
        <mxCell id="53Cg35nE54wRgI2eHrTP-86" value="" style="rounded=0;whiteSpace=wrap;html=1;rotation=90;" parent="1" vertex="1">
          <mxGeometry x="-290" y="430" width="1000" height="390" as="geometry" />
        </mxCell>
        <mxCell id="53Cg35nE54wRgI2eHrTP-49" style="edgeStyle=none;rounded=0;orthogonalLoop=1;jettySize=auto;html=1;" parent="1" source="53Cg35nE54wRgI2eHrTP-3" target="53Cg35nE54wRgI2eHrTP-40" edge="1">
          <mxGeometry relative="1" as="geometry">
            <Array as="points" />
          </mxGeometry>
        </mxCell>
        <mxCell id="53Cg35nE54wRgI2eHrTP-62" style="edgeStyle=none;rounded=0;orthogonalLoop=1;jettySize=auto;html=1;" parent="1" target="53Cg35nE54wRgI2eHrTP-18" edge="1">
          <mxGeometry relative="1" as="geometry">
            <mxPoint x="-50" y="794.2837978285454" as="sourcePoint" />
          </mxGeometry>
        </mxCell>
        <mxCell id="53Cg35nE54wRgI2eHrTP-63" style="edgeStyle=none;rounded=0;orthogonalLoop=1;jettySize=auto;html=1;" parent="1" target="53Cg35nE54wRgI2eHrTP-17" edge="1">
          <mxGeometry relative="1" as="geometry">
            <mxPoint x="-50" y="799.2879347643541" as="sourcePoint" />
          </mxGeometry>
        </mxCell>
        <mxCell id="53Cg35nE54wRgI2eHrTP-64" style="edgeStyle=none;rounded=0;orthogonalLoop=1;jettySize=auto;html=1;" parent="1" target="53Cg35nE54wRgI2eHrTP-16" edge="1">
          <mxGeometry relative="1" as="geometry">
            <mxPoint x="-50" y="804.2810909790799" as="sourcePoint" />
          </mxGeometry>
        </mxCell>
        <mxCell id="53Cg35nE54wRgI2eHrTP-65" style="edgeStyle=none;rounded=0;orthogonalLoop=1;jettySize=auto;html=1;" parent="1" target="53Cg35nE54wRgI2eHrTP-19" edge="1">
          <mxGeometry relative="1" as="geometry">
            <mxPoint x="-50" y="809.6437605762883" as="sourcePoint" />
          </mxGeometry>
        </mxCell>
        <mxCell id="53Cg35nE54wRgI2eHrTP-3" value="Moderator" style="shape=umlActor;verticalLabelPosition=bottom;verticalAlign=top;html=1;outlineConnect=0;" parent="1" vertex="1">
          <mxGeometry x="-80" y="720" width="30" height="60" as="geometry" />
        </mxCell>
        <mxCell id="53Cg35nE54wRgI2eHrTP-4" value="Log In" style="ellipse;whiteSpace=wrap;html=1;aspect=fixed;" parent="1" vertex="1">
          <mxGeometry x="120" y="210" width="60" height="60" as="geometry" />
        </mxCell>
        <mxCell id="53Cg35nE54wRgI2eHrTP-5" value="Sign Up" style="ellipse;whiteSpace=wrap;html=1;aspect=fixed;" parent="1" vertex="1">
          <mxGeometry x="120" y="140" width="60" height="60" as="geometry" />
        </mxCell>
        <mxCell id="53Cg35nE54wRgI2eHrTP-7" value="View Community" style="ellipse;whiteSpace=wrap;html=1;aspect=fixed;" parent="1" vertex="1">
          <mxGeometry x="115" y="280" width="70" height="70" as="geometry" />
        </mxCell>
        <mxCell id="53Cg35nE54wRgI2eHrTP-8" value="Create Post" style="ellipse;whiteSpace=wrap;html=1;aspect=fixed;" parent="1" vertex="1">
          <mxGeometry x="120" y="500" width="60" height="60" as="geometry" />
        </mxCell>
        <mxCell id="53Cg35nE54wRgI2eHrTP-9" value="Comment on Post" style="ellipse;whiteSpace=wrap;html=1;aspect=fixed;" parent="1" vertex="1">
          <mxGeometry x="120" y="700" width="60" height="60" as="geometry" />
        </mxCell>
        <mxCell id="53Cg35nE54wRgI2eHrTP-10" value="Like/Dislike Post" style="ellipse;whiteSpace=wrap;html=1;aspect=fixed;" parent="1" vertex="1">
          <mxGeometry x="120" y="630" width="60" height="60" as="geometry" />
        </mxCell>
        <mxCell id="53Cg35nE54wRgI2eHrTP-11" value="Like/Dislike Comment" style="ellipse;whiteSpace=wrap;html=1;aspect=fixed;" parent="1" vertex="1">
          <mxGeometry x="120" y="770" width="60" height="60" as="geometry" />
        </mxCell>
        <mxCell id="53Cg35nE54wRgI2eHrTP-12" value="Join Community&lt;span style=&quot;color: rgba(0, 0, 0, 0); font-family: monospace; font-size: 0px; text-align: start; text-wrap: nowrap;&quot;&gt;%3CmxGraphModel%3E%3Croot%3E%3CmxCell%20id%3D%220%22%2F%3E%3CmxCell%20id%3D%221%22%20parent%3D%220%22%2F%3E%3CmxCell%20id%3D%222%22%20value%3D%22Log%20In%22%20style%3D%22ellipse%3BwhiteSpace%3Dwrap%3Bhtml%3D1%3Baspect%3Dfixed%3B%22%20vertex%3D%221%22%20parent%3D%221%22%3E%3CmxGeometry%20x%3D%22320%22%20y%3D%22210%22%20width%3D%2280%22%20height%3D%2280%22%20as%3D%22geometry%22%2F%3E%3C%2FmxCell%3E%3C%2Froot%3E%3C%2FmxGraphModel%3E&lt;/span&gt;" style="ellipse;whiteSpace=wrap;html=1;aspect=fixed;" parent="1" vertex="1">
          <mxGeometry x="120" y="360" width="60" height="60" as="geometry" />
        </mxCell>
        <mxCell id="53Cg35nE54wRgI2eHrTP-13" value="Leave Community&lt;span style=&quot;text-wrap: nowrap; color: rgba(0, 0, 0, 0); font-family: monospace; font-size: 0px; text-align: start;&quot;&gt;%3CmxGraphModel%3E%3Croot%3E%3CmxCell%20id%3D%220%22%2F%3E%3CmxCell%20id%3D%221%22%20parent%3D%220%22%2F%3E%3CmxCell%20id%3D%222%22%20value%3D%22Log%20In%22%20style%3D%22ellipse%3BwhiteSpace%3Dwrap%3Bhtml%3D1%3Baspect%3Dfixed%3B%22%20vertex%3D%221%22%20parent%3D%221%22%3E%3CmxGeometry%20x%3D%22320%22%20y%3D%22210%22%20width%3D%2280%22%20height%3D%2280%22%20as%3D%22geometry%22%2F%3E%3C%2FmxCell%3E%3C%2Froot%3E%3C%2FmxGraphModel%3E&lt;/span&gt;" style="ellipse;whiteSpace=wrap;html=1;aspect=fixed;" parent="1" vertex="1">
          <mxGeometry x="120" y="430" width="60" height="60" as="geometry" />
        </mxCell>
        <mxCell id="53Cg35nE54wRgI2eHrTP-16" value="Delete Post&lt;span style=&quot;color: rgba(0, 0, 0, 0); font-family: monospace; font-size: 0px; text-align: start; text-wrap: nowrap;&quot;&gt;%3CmxGraphModel%3E%3Croot%3E%3CmxCell%20id%3D%220%22%2F%3E%3CmxCell%20id%3D%221%22%20parent%3D%220%22%2F%3E%3CmxCell%20id%3D%222%22%20value%3D%22Create%20Post%22%20style%3D%22ellipse%3BwhiteSpace%3Dwrap%3Bhtml%3D1%3Baspect%3Dfixed%3B%22%20vertex%3D%221%22%20parent%3D%221%22%3E%3CmxGeometry%20x%3D%22310%22%20y%3D%22320%22%20width%3D%2280%22%20height%3D%2280%22%20as%3D%22geometry%22%2F%3E%3C%2FmxCell%3E%3C%2Froot%3E%3C%2FmxGraphModel%3E&lt;/span&gt;" style="ellipse;whiteSpace=wrap;html=1;aspect=fixed;" parent="1" vertex="1">
          <mxGeometry x="115" y="980" width="60" height="60" as="geometry" />
        </mxCell>
        <mxCell id="53Cg35nE54wRgI2eHrTP-17" value="Delete Community" style="ellipse;whiteSpace=wrap;html=1;aspect=fixed;" parent="1" vertex="1">
          <mxGeometry x="115" y="910" width="60" height="60" as="geometry" />
        </mxCell>
        <mxCell id="53Cg35nE54wRgI2eHrTP-18" value="Approve Post" style="ellipse;whiteSpace=wrap;html=1;aspect=fixed;" parent="1" vertex="1">
          <mxGeometry x="115" y="840" width="60" height="60" as="geometry" />
        </mxCell>
        <mxCell id="53Cg35nE54wRgI2eHrTP-19" value="Ban User from community" style="ellipse;whiteSpace=wrap;html=1;aspect=fixed;" parent="1" vertex="1">
          <mxGeometry x="110" y="1050" width="70" height="70" as="geometry" />
        </mxCell>
        <mxCell id="53Cg35nE54wRgI2eHrTP-51" style="edgeStyle=none;rounded=0;orthogonalLoop=1;jettySize=auto;html=1;" parent="1" source="53Cg35nE54wRgI2eHrTP-39" target="53Cg35nE54wRgI2eHrTP-5" edge="1">
          <mxGeometry relative="1" as="geometry" />
        </mxCell>
        <mxCell id="53Cg35nE54wRgI2eHrTP-52" style="edgeStyle=none;rounded=0;orthogonalLoop=1;jettySize=auto;html=1;" parent="1" source="53Cg35nE54wRgI2eHrTP-39" target="53Cg35nE54wRgI2eHrTP-7" edge="1">
          <mxGeometry relative="1" as="geometry" />
        </mxCell>
        <mxCell id="53Cg35nE54wRgI2eHrTP-39" value="Guest" style="shape=umlActor;verticalLabelPosition=bottom;verticalAlign=top;html=1;outlineConnect=0;" parent="1" vertex="1">
          <mxGeometry x="-220" y="340" width="30" height="60" as="geometry" />
        </mxCell>
        <mxCell id="53Cg35nE54wRgI2eHrTP-50" style="edgeStyle=none;rounded=0;orthogonalLoop=1;jettySize=auto;html=1;" parent="1" source="53Cg35nE54wRgI2eHrTP-40" target="53Cg35nE54wRgI2eHrTP-39" edge="1">
          <mxGeometry relative="1" as="geometry" />
        </mxCell>
        <mxCell id="53Cg35nE54wRgI2eHrTP-54" style="edgeStyle=none;rounded=0;orthogonalLoop=1;jettySize=auto;html=1;" parent="1" source="53Cg35nE54wRgI2eHrTP-40" target="53Cg35nE54wRgI2eHrTP-4" edge="1">
          <mxGeometry relative="1" as="geometry" />
        </mxCell>
        <mxCell id="53Cg35nE54wRgI2eHrTP-56" style="edgeStyle=none;rounded=0;orthogonalLoop=1;jettySize=auto;html=1;" parent="1" source="53Cg35nE54wRgI2eHrTP-40" target="53Cg35nE54wRgI2eHrTP-12" edge="1">
          <mxGeometry relative="1" as="geometry" />
        </mxCell>
        <mxCell id="53Cg35nE54wRgI2eHrTP-57" style="edgeStyle=none;rounded=0;orthogonalLoop=1;jettySize=auto;html=1;" parent="1" source="53Cg35nE54wRgI2eHrTP-40" target="53Cg35nE54wRgI2eHrTP-13" edge="1">
          <mxGeometry relative="1" as="geometry" />
        </mxCell>
        <mxCell id="53Cg35nE54wRgI2eHrTP-58" style="edgeStyle=none;rounded=0;orthogonalLoop=1;jettySize=auto;html=1;" parent="1" source="53Cg35nE54wRgI2eHrTP-40" target="53Cg35nE54wRgI2eHrTP-8" edge="1">
          <mxGeometry relative="1" as="geometry" />
        </mxCell>
        <mxCell id="53Cg35nE54wRgI2eHrTP-59" style="edgeStyle=none;rounded=0;orthogonalLoop=1;jettySize=auto;html=1;" parent="1" source="53Cg35nE54wRgI2eHrTP-40" target="53Cg35nE54wRgI2eHrTP-10" edge="1">
          <mxGeometry relative="1" as="geometry" />
        </mxCell>
        <mxCell id="53Cg35nE54wRgI2eHrTP-60" style="edgeStyle=none;rounded=0;orthogonalLoop=1;jettySize=auto;html=1;" parent="1" source="53Cg35nE54wRgI2eHrTP-40" target="53Cg35nE54wRgI2eHrTP-9" edge="1">
          <mxGeometry relative="1" as="geometry" />
        </mxCell>
        <mxCell id="V7uT9zWGnbN4KvYUMGEz-8" style="edgeStyle=none;rounded=0;orthogonalLoop=1;jettySize=auto;html=1;" edge="1" parent="1" source="53Cg35nE54wRgI2eHrTP-40" target="V7uT9zWGnbN4KvYUMGEz-5">
          <mxGeometry relative="1" as="geometry" />
        </mxCell>
        <mxCell id="53Cg35nE54wRgI2eHrTP-40" value="Registered User" style="shape=umlActor;verticalLabelPosition=bottom;verticalAlign=top;html=1;outlineConnect=0;" parent="1" vertex="1">
          <mxGeometry x="-110" y="530" width="30" height="60" as="geometry" />
        </mxCell>
        <mxCell id="53Cg35nE54wRgI2eHrTP-61" style="edgeStyle=none;rounded=0;orthogonalLoop=1;jettySize=auto;html=1;entryX=0.037;entryY=0.338;entryDx=0;entryDy=0;entryPerimeter=0;" parent="1" source="53Cg35nE54wRgI2eHrTP-40" target="53Cg35nE54wRgI2eHrTP-11" edge="1">
          <mxGeometry relative="1" as="geometry" />
        </mxCell>
        <mxCell id="53Cg35nE54wRgI2eHrTP-69" style="edgeStyle=none;rounded=0;orthogonalLoop=1;jettySize=auto;html=1;" parent="1" source="53Cg35nE54wRgI2eHrTP-67" target="53Cg35nE54wRgI2eHrTP-5" edge="1">
          <mxGeometry relative="1" as="geometry" />
        </mxCell>
        <mxCell id="53Cg35nE54wRgI2eHrTP-70" style="edgeStyle=none;rounded=0;orthogonalLoop=1;jettySize=auto;html=1;entryX=1;entryY=0.5;entryDx=0;entryDy=0;" parent="1" source="53Cg35nE54wRgI2eHrTP-67" target="53Cg35nE54wRgI2eHrTP-4" edge="1">
          <mxGeometry relative="1" as="geometry" />
        </mxCell>
        <mxCell id="53Cg35nE54wRgI2eHrTP-72" style="edgeStyle=none;rounded=0;orthogonalLoop=1;jettySize=auto;html=1;" parent="1" source="53Cg35nE54wRgI2eHrTP-67" target="53Cg35nE54wRgI2eHrTP-12" edge="1">
          <mxGeometry relative="1" as="geometry" />
        </mxCell>
        <mxCell id="53Cg35nE54wRgI2eHrTP-73" style="edgeStyle=none;rounded=0;orthogonalLoop=1;jettySize=auto;html=1;entryX=1;entryY=0.5;entryDx=0;entryDy=0;" parent="1" source="53Cg35nE54wRgI2eHrTP-67" target="53Cg35nE54wRgI2eHrTP-13" edge="1">
          <mxGeometry relative="1" as="geometry" />
        </mxCell>
        <mxCell id="53Cg35nE54wRgI2eHrTP-74" style="edgeStyle=none;rounded=0;orthogonalLoop=1;jettySize=auto;html=1;" parent="1" source="53Cg35nE54wRgI2eHrTP-67" target="53Cg35nE54wRgI2eHrTP-8" edge="1">
          <mxGeometry relative="1" as="geometry" />
        </mxCell>
        <mxCell id="53Cg35nE54wRgI2eHrTP-75" style="edgeStyle=none;rounded=0;orthogonalLoop=1;jettySize=auto;html=1;" parent="1" source="53Cg35nE54wRgI2eHrTP-67" target="53Cg35nE54wRgI2eHrTP-10" edge="1">
          <mxGeometry relative="1" as="geometry" />
        </mxCell>
        <mxCell id="53Cg35nE54wRgI2eHrTP-76" style="edgeStyle=none;rounded=0;orthogonalLoop=1;jettySize=auto;html=1;" parent="1" source="53Cg35nE54wRgI2eHrTP-67" target="53Cg35nE54wRgI2eHrTP-9" edge="1">
          <mxGeometry relative="1" as="geometry" />
        </mxCell>
        <mxCell id="53Cg35nE54wRgI2eHrTP-78" style="edgeStyle=none;rounded=0;orthogonalLoop=1;jettySize=auto;html=1;entryX=1;entryY=0.5;entryDx=0;entryDy=0;" parent="1" source="53Cg35nE54wRgI2eHrTP-67" target="53Cg35nE54wRgI2eHrTP-18" edge="1">
          <mxGeometry relative="1" as="geometry" />
        </mxCell>
        <mxCell id="53Cg35nE54wRgI2eHrTP-80" style="edgeStyle=none;rounded=0;orthogonalLoop=1;jettySize=auto;html=1;entryX=1;entryY=0.5;entryDx=0;entryDy=0;" parent="1" source="53Cg35nE54wRgI2eHrTP-67" target="53Cg35nE54wRgI2eHrTP-16" edge="1">
          <mxGeometry relative="1" as="geometry" />
        </mxCell>
        <mxCell id="53Cg35nE54wRgI2eHrTP-81" style="edgeStyle=none;rounded=0;orthogonalLoop=1;jettySize=auto;html=1;entryX=1;entryY=0.5;entryDx=0;entryDy=0;" parent="1" source="53Cg35nE54wRgI2eHrTP-67" target="53Cg35nE54wRgI2eHrTP-19" edge="1">
          <mxGeometry relative="1" as="geometry" />
        </mxCell>
        <mxCell id="53Cg35nE54wRgI2eHrTP-87" style="edgeStyle=none;rounded=0;orthogonalLoop=1;jettySize=auto;html=1;" parent="1" source="53Cg35nE54wRgI2eHrTP-67" target="53Cg35nE54wRgI2eHrTP-7" edge="1">
          <mxGeometry relative="1" as="geometry" />
        </mxCell>
        <mxCell id="V7uT9zWGnbN4KvYUMGEz-2" style="edgeStyle=none;rounded=0;orthogonalLoop=1;jettySize=auto;html=1;" edge="1" parent="1" source="53Cg35nE54wRgI2eHrTP-67" target="53Cg35nE54wRgI2eHrTP-11">
          <mxGeometry relative="1" as="geometry" />
        </mxCell>
        <mxCell id="V7uT9zWGnbN4KvYUMGEz-7" style="edgeStyle=none;rounded=0;orthogonalLoop=1;jettySize=auto;html=1;entryX=1;entryY=0.5;entryDx=0;entryDy=0;" edge="1" parent="1" source="53Cg35nE54wRgI2eHrTP-67" target="V7uT9zWGnbN4KvYUMGEz-5">
          <mxGeometry relative="1" as="geometry" />
        </mxCell>
        <mxCell id="53Cg35nE54wRgI2eHrTP-67" value="Firebase" style="shape=cylinder3;whiteSpace=wrap;html=1;boundedLbl=1;backgroundOutline=1;size=15;" parent="1" vertex="1">
          <mxGeometry x="440" y="360" width="60" height="80" as="geometry" />
        </mxCell>
        <mxCell id="53Cg35nE54wRgI2eHrTP-79" style="edgeStyle=none;rounded=0;orthogonalLoop=1;jettySize=auto;html=1;entryX=0.967;entryY=0.679;entryDx=0;entryDy=0;entryPerimeter=0;" parent="1" source="53Cg35nE54wRgI2eHrTP-67" target="53Cg35nE54wRgI2eHrTP-17" edge="1">
          <mxGeometry relative="1" as="geometry" />
        </mxCell>
        <mxCell id="53Cg35nE54wRgI2eHrTP-89" value="Posthub" style="text;html=1;align=center;verticalAlign=middle;resizable=0;points=[];autosize=1;strokeColor=none;fillColor=none;fontSize=30;" parent="1" vertex="1">
          <mxGeometry x="85" y="70" width="130" height="50" as="geometry" />
        </mxCell>
        <mxCell id="V7uT9zWGnbN4KvYUMGEz-5" value="Edit Post" style="ellipse;whiteSpace=wrap;html=1;aspect=fixed;" vertex="1" parent="1">
          <mxGeometry x="120" y="570" width="60" height="60" as="geometry" />
        </mxCell>
        <mxCell id="V7uT9zWGnbN4KvYUMGEz-12" style="edgeStyle=none;rounded=0;orthogonalLoop=1;jettySize=auto;html=1;" edge="1" parent="1" source="V7uT9zWGnbN4KvYUMGEz-10" target="53Cg35nE54wRgI2eHrTP-19">
          <mxGeometry relative="1" as="geometry" />
        </mxCell>
        <mxCell id="V7uT9zWGnbN4KvYUMGEz-14" style="edgeStyle=none;rounded=0;orthogonalLoop=1;jettySize=auto;html=1;" edge="1" parent="1" source="V7uT9zWGnbN4KvYUMGEz-10" target="53Cg35nE54wRgI2eHrTP-18">
          <mxGeometry relative="1" as="geometry" />
        </mxCell>
        <mxCell id="V7uT9zWGnbN4KvYUMGEz-10" value="Notifications" style="shape=cylinder3;whiteSpace=wrap;html=1;boundedLbl=1;backgroundOutline=1;size=15;" vertex="1" parent="1">
          <mxGeometry x="300" y="920" width="90" height="100" as="geometry" />
        </mxCell>
        <mxCell id="V7uT9zWGnbN4KvYUMGEz-11" style="edgeStyle=none;rounded=0;orthogonalLoop=1;jettySize=auto;html=1;entryX=0.966;entryY=0.406;entryDx=0;entryDy=0;entryPerimeter=0;" edge="1" parent="1" source="V7uT9zWGnbN4KvYUMGEz-10" target="53Cg35nE54wRgI2eHrTP-9">
          <mxGeometry relative="1" as="geometry" />
        </mxCell>
      </root>
    </mxGraphModel>
  </diagram>
</mxfile>
